<svg viewBox="0 0 35 30" fill="none" xmlns="http://www.w3.org/2000/svg">
<path d="M31.4783 13.9171C30.6936 13.3542 28.6325 13.1137 27.1335 13.5441 27.0527 11.9527 26.2826 10.6119 24.8747 9.44209L24.3529 9.06908 24.0051 9.62859C23.3219 10.7333 23.0351 12.2054 23.1366 13.5441 23.2173 14.3684 23.4865 15.2954 24.0051 15.9686 22.0548 17.1748 20.2566 16.9011 12.2938 16.9011H.00279151C-.0334407 18.818.256417 22.505 2.4552 25.5056 2.69847 25.8367 2.96452 26.1578 3.25334 26.4668c1.7878 1.9092 4.48969 3.3085 8.53006 3.313C17.9471 29.7853 23.2277 26.234 26.4399 17.6471 27.4969 17.6659 30.2867 17.8491 31.6522 15.0361 31.6853 14.9886 32 14.2901 32 14.2901L31.4783 13.9171zM8.02461 11.9395H4.56805v3.6848H8.02461V11.9395zm4.46589.0H9.03394v3.6848H12.4905V11.9395zm4.4659.0H13.4998v3.6848h3.4566V11.9395zm4.4659.0H17.9657v3.6848h3.4566V11.9395zm-17.86461.0H.102171v3.6848H3.55873L3.55769 11.9395zM8.02357 7.28461H4.56702V10.9694H8.02357V7.28461zm4.46593.0H9.0329V10.9694h3.4566V7.28461zm4.4658.0H13.4988V10.9694h3.4565V7.28461zm0-4.65485H13.4988V6.31458h3.4565V2.62976z" fill="#fff"></path>
</svg>